<svg height="512" viewBox="0 0 64 64" width="512" xmlns="http://www.w3.org/2000/svg"><path d="M50 14h-2v-2a1 1 0 00-.485-.857l-.713-.428A19.057 19.057 0 0043 8.97V2a1 1 0 00-1.554-.832l-14.474 9.649-.17-.102a19.055 19.055 0 00-19.604 0l-.713.428A1 1 0 006 12v2H4c-1.654 0-3 1.346-3 3v37c0 1.654 1.346 3 3 3h46c1.654 0 3-1.346 3-3V17c0-1.654-1.346-3-3-3zm-7.445 28.832c.278-.186.445-.498.445-.832V11.09c.962.362 1.89.81 2.772 1.339l.228.137V50.26a19.053 19.053 0 00-11.431-2.104zM28 12.535l13-8.667v37.596l-13 8.667zm-20 .031l.228-.137a17.053 17.053 0 0117.544.001l.228.136V50.26a19.053 19.053 0 00-18 0zM51 54c0 .551-.448 1-1 1H4c-.552 0-1-.449-1-1V17c0-.551.448-1 1-1h2v36a.998.998 0 001.515.857l.713-.428a17.053 17.053 0 0117.544.001l.711.426.015.009h.001c.003.005.002.002.003.002a.943.943 0 00.21.09h.007c.096.028.173.035.294.04h.01a.957.957 0 00.321-.061h.008a.965.965 0 00.165-.08l.711-.427a17.053 17.053 0 0117.544.001l.713.428A1.002 1.002 0 0048 52V16h2c.552 0 1 .449 1 1z"/><path d="M10 19h14v2H10zm0 16h14v2H10zm0-12h14v2H10zm0 4h5v2h-5zm9 0h5v2h-5zm-9 4h5v2h-5zm9 0h5v2h-5zm11.494-14.868l6.998-3.998.992 1.736-6.998 3.998zm0 4.999l6.998-3.998.992 1.736-6.998 3.998zm-.001 4.999l6.998-3.998.992 1.736-6.998 3.998zM63 5c0-2.206-1.794-4-4-4a4 4 0 00-3.886 3.09C52.78 4.51 51 6.547 51 9v3h2V9c0-1.302.839-2.402 2-2.816V54c0 .111.03.213.063.313l-.011.004 2 6A.998.998 0 0058 61v2h2v-2a.998.998 0 00.948-.684l2-6-.011-.004A.979.979 0 0063 54zm-6 0c0-1.103.897-2 2-2s2 .897 2 2v48h-4zm.387 50h3.226l-1.334 4h-.559z"/></svg>