<svg xmlns="http://www.w3.org/2000/svg" viewBox="0 0 512.001 512.001"><circle cx="406" cy="226" r="15"/><circle cx="346" cy="226" r="15"/><circle cx="286" cy="226" r="15"/><circle cx="226" cy="91" r="15"/><circle cx="166" cy="91" r="15"/><circle cx="106" cy="91" r="15"/><path d="M467 136H331V61c0-24.813-20.187-45-45-45H45C20.187 16 0 36.187 0 61v90c0 24.813 20.187 45 45 45h16v45a14.998 14.998 0 0014.987 15H45c-24.813 0-45 20.187-45 45v90c0 24.813 20.187 45 45 45h16v45a15 15 0 0025.607 10.606L142.213 436H286c24.813 0 45-20.187 45-45v-75h47.975l45.502 54.603A15 15 0 00451.001 361v-45h16c24.813 0 45-20.187 45-45v-90C512 156.187 491.813 136 467 136zM45 166c-8.271 0-15-6.729-15-15V61c0-8.271 6.729-15 15-15h241c8.271 0 15 6.729 15 15v75h-75c-19.555 0-36.228 12.542-42.42 30H136a14.996 14.996 0 00-10.606 4.394L91 204.786V181c0-8.284-6.716-15-15-15H45zm136 30v60H76.007a14.996 14.996 0 0010.599-4.394L142.213 196H181zm120 195c0 8.271-6.729 15-15 15H136a14.996 14.996 0 00-10.606 4.394L91 444.786V421c0-8.284-6.716-15-15-15H45c-8.271 0-15-6.729-15-15v-90c0-8.271 6.729-15 15-15h241c8.271 0 15 6.729 15 15v90zm181-120c0 8.271-6.729 15-15 15h-31c-8.284 0-15 6.716-15 15v18.569l-23.477-28.172A14.998 14.998 0 00386 286h-57.58c-6.192-17.458-22.865-30-42.42-30h-75v-75c0-8.271 6.729-15 15-15h241c8.271 0 15 6.729 15 15v90z"/><circle cx="226" cy="346" r="15"/><circle cx="166" cy="346" r="15"/><circle cx="106" cy="346" r="15"/></svg>