<svg height="512" viewBox="0 0 60 60" width="512" xmlns="http://www.w3.org/2000/svg"><path d="M55.5 60h-51A4.505 4.505 0 010 55.5v-51C0 2.019 2.019 0 4.5 0h51C57.981 0 60 2.019 60 4.5v51c0 2.481-2.019 4.5-4.5 4.5zM4.5 2A2.503 2.503 0 002 4.5v51C2 56.878 3.122 58 4.5 58h51c1.379 0 2.5-1.122 2.5-2.5v-51C58 3.122 56.878 2 55.5 2z"/><path d="M9 10H5a1 1 0 01-1-1V5a1 1 0 011-1h4a1 1 0 011 1v4a1 1 0 01-1 1zM6 8h2V6H6zm11 2h-4a1 1 0 01-1-1V5a1 1 0 011-1h4a1 1 0 011 1v4a1 1 0 01-1 1zm-3-2h2V6h-2zm11 2h-4a1 1 0 01-1-1V5a1 1 0 011-1h4a1 1 0 011 1v4a1 1 0 01-1 1zm-3-2h2V6h-2z"/><path d="M59 14H1a1 1 0 01-1-1V4.5C0 2.019 2.019 0 4.5 0h51C57.981 0 60 2.019 60 4.5V13a1 1 0 01-1 1zM2 12h56V4.5C58 3.122 56.878 2 55.5 2h-51A2.503 2.503 0 002 4.5zm25 26H5a1 1 0 01-1-1V17a1 1 0 011-1h22a1 1 0 011 1v20a1 1 0 01-1 1zM6 36h20V18H6z"/><path d="M16 38a.997.997 0 01-.707-.293L10 32.414l-4.293 4.293a.999.999 0 11-1.414-1.414l5-5a.999.999 0 011.414 0l6 6A.999.999 0 0116 38zm-4-10c-2.206 0-4-1.794-4-4s1.794-4 4-4 4 1.794 4 4-1.794 4-4 4zm0-6c-1.103 0-2 .897-2 2s.897 2 2 2 2-.897 2-2-.897-2-2-2z"/><path d="M27 36a.997.997 0 01-.707-.293l-6.262-6.262-5.506 6.002a1 1 0 11-1.474-1.352l6.211-6.771a1 1 0 01.715-.324c.276-.012.536.1.729.293l7 7A.999.999 0 0127 36zm28 20H33a1 1 0 01-1-1V35a1 1 0 011-1h22a1 1 0 011 1v20a1 1 0 01-1 1zm-21-2h20V36H34z"/><path d="M44 56a.997.997 0 01-.707-.293L38 50.414l-4.293 4.293a.999.999 0 11-1.414-1.414l5-5a.999.999 0 011.414 0l6 6A.999.999 0 0144 56zm-4-10c-2.206 0-4-1.794-4-4s1.794-4 4-4 4 1.794 4 4-1.794 4-4 4zm0-6c-1.103 0-2 .897-2 2s.897 2 2 2 2-.897 2-2-.897-2-2-2z"/><path d="M55 54a.997.997 0 01-.707-.293l-6.262-6.262-5.506 6.002a1 1 0 11-1.474-1.352l6.211-6.771a1 1 0 011.444-.031l7 7A.999.999 0 0155 54zm-6-32H33a1 1 0 010-2h16a1 1 0 010 2zm6 0h-2a1 1 0 010-2h2a1 1 0 010 2zm-6 8H33a1 1 0 010-2h16a1 1 0 010 2zm6 0h-2a1 1 0 010-2h2a1 1 0 010 2zm0-4H39a1 1 0 010-2h16a1 1 0 010 2zm-20 0h-2a1 1 0 010-2h2a1 1 0 010 2zM21 44H5a1 1 0 010-2h16a1 1 0 010 2zm6 0h-2a1 1 0 010-2h2a1 1 0 010 2zm-6 8H5a1 1 0 010-2h16a1 1 0 010 2zm6 0h-2a1 1 0 010-2h2a1 1 0 010 2zm0-4H11a1 1 0 010-2h16a1 1 0 010 2zM7 48H5a1 1 0 010-2h2a1 1 0 010 2z"/></svg>