<svg height="636" viewBox="-32 0 477 477.44" width="636" xmlns="http://www.w3.org/2000/svg"><path d="M399.629 395.457l-47.336-47.352V8a8 8 0 00-8-8h-240c-.152 0-.297.078-.45.09a7.5 7.5 0 00-2.152.43 6.42 6.42 0 00-.695.25 8 8 0 00-2.398 1.597l-96 96a7.886 7.886 0 00-1.602 2.344c-.113.25-.176.496-.266.754a7.551 7.551 0 00-.406 2.055c0 .175-.105.328-.105.503V408a8 8 0 008 8h276.176l47.343 47.32a47.573 47.573 0 0033.946 14.121 48.002 48.002 0 0033.937-81.984zm-67.817 45.344L207.293 316.32l45.32-45.329 124.48 124.528zM200.524 300.457l-10.847-47.066 47.074 10.84zM96.293 27.313V96H27.605zM16.293 400V112h88a8 8 0 008-8V16h224v316.098l-78.016-78.075-.09-.054a7.982 7.982 0 00-2.253-1.512c-.227-.098-.442-.168-.664-.25a8.458 8.458 0 00-.86-.328l-73.598-16.957a8.004 8.004 0 00-7.464 2.133 8.01 8.01 0 00-2.137 7.465l16.96 73.601c.095.293.204.582.329.863.082.215.145.43.25.649a7.672 7.672 0 001.527 2.277l.04.067L268.386 400zm372 52.04c-5.984 6.003-14.113 9.378-22.59 9.378s-16.605-3.375-22.586-9.379l3.766-3.773 41.48-41.473a31.876 31.876 0 019.36 22.617 31.885 31.885 0 01-9.43 22.59zm0 0"/><path d="M72.293 160h208a8 8 0 000-16h-208a8 8 0 000 16zm0 48h208a8 8 0 000-16h-208a8 8 0 000 16zm56 32h-56a8 8 0 000 16h56a8 8 0 000-16zm0 0"/></svg>