<svg xmlns="http://www.w3.org/2000/svg" viewBox="0 0 504.32 504.32"><path d="M251.733 260.87V90.204s-34.133-17.067-76.8-17.067c-76.8 0-136.533 17.067-136.533 17.067v375.467s59.733-17.067 136.533-17.067c42.667 0 76.8 17.067 76.8 17.067s42.667-17.067 85.333-17.067c76.8 0 128 17.067 128 17.067V90.204s-17.067-8.533-51.2-8.533v136.533V4.87C345.6 30.47 251.733 90.204 251.733 90.204V260.87z" fill="#f2edda"/><path d="M499.2 132.87v332.8c0 18.773-15.36 34.133-34.133 34.133H251.733V465.67s42.667-17.067 85.333-17.067c76.8 0 128 17.067 128 17.067v-332.8H499.2zm-247.467 332.8v34.133H38.4c-18.773 0-34.133-15.36-34.133-34.133v-332.8H38.4v332.8s59.733-17.067 136.533-17.067c42.667.001 76.8 17.067 76.8 17.067z" fill="#aab1ba"/><path d="M465.067 504.07H38.4c-21.333 0-38.4-17.067-38.4-38.4v-332.8c0-2.56 1.707-4.267 4.267-4.267s4.267 1.707 4.267 4.267v332.8c0 16.213 13.653 29.867 29.867 29.867h209.067V468.23c-8.533-3.413-37.547-15.36-72.533-15.36-75.093 0-134.827 17.067-135.68 17.067s-2.56 0-3.413-.853-1.707-1.707-1.707-3.413V90.204c0-1.707.853-3.413 3.413-4.267.853 0 61.44-17.067 137.387-17.067 43.52 0 77.653 17.067 78.507 17.92 1.707.853 2.56 2.56 2.56 3.413v333.653c21.333-11.947 90.453-51.2 153.6-72.533V10.844c-64.853 25.6-129.707 64.853-129.707 65.707-1.707.853-4.267.853-5.973-1.707-.853-1.707-.853-4.267 1.707-5.973.853-.853 69.12-43.52 137.387-68.267 1.707-.853 2.56 0 4.267.853.853.853 1.707 1.707 1.707 3.413v349.867c0 1.707-.853 3.413-2.56 4.267-75.093 24.747-160.427 75.947-161.28 76.8-1.707.853-2.56.853-4.267 0-1.707-.853-2.56-2.56-2.56-3.413V93.617c-8.533-3.413-37.547-15.36-72.533-15.36-65.707 0-119.467 12.8-132.267 16.213v366.933c16.213-4.267 69.12-16.213 132.267-16.213 38.4 0 69.12 12.8 76.8 17.067 8.533-3.413 46.933-17.067 85.333-17.067 63.147 0 108.373 11.093 123.733 15.36V94.47c-3.413-.853-7.68-1.707-14.507-2.56-2.56-.853-4.267-2.56-3.413-5.12 0-2.56 2.56-4.267 5.12-3.413 11.093 1.707 17.92 3.413 17.92 3.413 1.707.853 3.413 2.56 3.413 4.267v375.467c0 1.707-.853 2.56-1.707 3.413-.853.853-2.56.853-4.267.853-.853 0-51.2-17.067-126.293-17.067-34.987 0-70.827 11.947-81.067 15.36v27.307H465.92c16.213 0 29.867-13.653 29.867-29.867v-332.8c0-2.56 1.707-4.267 4.267-4.267 2.56 0 4.267 1.707 4.267 4.267v332.8c-.854 20.481-17.921 37.547-39.254 37.547zM89.6 376.07c-1.707 0-3.413-.853-4.267-3.413-.853-2.56.853-4.267 3.413-5.12 2.56-.853 61.44-16.213 112.64-4.267 2.56.853 3.413 2.56 3.413 5.12-.853 2.56-2.56 3.413-5.12 3.413-49.493-11.947-108.373 3.413-109.227 4.267H89.6zm204.8-34.133c-1.707 0-3.413-.853-3.413-2.56-.853-1.707 0-4.267 1.707-5.973 1.707-.853 52.053-26.453 77.653-34.133 2.56-.853 4.267.853 5.12 2.56.853 2.56-.853 4.267-2.56 5.12-24.747 7.68-75.947 33.28-75.947 34.133-.853.853-1.707.853-2.56.853zM89.6 324.87c-1.707 0-3.413-.853-4.267-3.413-.853-2.56.853-4.267 3.413-5.12s61.44-16.213 112.64-4.267c2.56.853 3.413 2.56 3.413 5.12-.853 2.56-2.56 3.413-5.12 3.413-49.493-11.947-108.373 3.413-109.227 4.267H89.6zm204.8-34.133c-1.707 0-3.413-.853-3.413-2.56-.853-1.707 0-4.267 1.707-5.973 1.707-.853 52.053-26.453 77.653-34.133 2.56-.853 4.267.853 5.12 2.56.853 2.56-.853 4.267-2.56 5.12-24.747 7.68-75.947 33.28-75.947 34.133-.853.853-1.707.853-2.56.853zM89.6 273.67c-1.707 0-3.413-.853-4.267-3.413s.853-4.267 3.413-5.12 61.44-16.213 112.64-4.267c2.56.853 3.413 2.56 3.413 5.12-.853 2.56-2.56 3.413-5.12 3.413-49.493-11.947-108.373 3.413-109.227 4.267H89.6zm204.8-34.133c-1.707 0-3.413-.853-3.413-2.56-.853-1.707 0-4.267 1.707-5.973 1.707-.853 52.053-26.453 77.653-34.133 2.56-.853 4.267.853 5.12 2.56.853 2.56-.853 4.267-2.56 5.12-24.747 7.68-75.947 33.28-75.947 34.133-.853.853-1.707.853-2.56.853zM89.6 222.47c-1.707 0-3.413-.853-4.267-3.413-.853-2.56.853-4.267 3.413-5.12s61.44-16.213 112.64-4.267c2.56.853 3.413 2.56 3.413 5.12-.853 2.56-2.56 3.413-5.12 3.413-49.493-11.947-108.373 3.413-109.227 4.267H89.6zm204.8-34.133c-1.707 0-3.413-.853-3.413-2.56-.853-1.707 0-4.267 1.707-5.973 1.707-.853 52.053-26.453 77.653-34.133 2.56-.853 4.267.853 5.12 2.56.853 2.56-.853 4.267-2.56 5.12-24.747 7.68-75.947 33.28-75.947 34.133-.853.853-1.707.853-2.56.853zM89.6 171.27c-1.707 0-3.413-.853-4.267-3.413-.853-2.56.853-4.267 3.413-5.12 2.56-.853 61.44-16.213 112.64-4.267 2.56.853 3.413 2.56 3.413 5.12-.853 2.56-2.56 3.413-5.12 3.413-49.493-11.947-108.373 3.413-109.227 4.267H89.6zm204.8-34.133c-1.707 0-3.413-.853-3.413-2.56-.853-1.707 0-4.267 1.707-5.973 1.707-.853 52.053-26.453 77.653-34.133 2.56-.853 4.267.853 5.12 2.56.853 2.56-.853 4.267-2.56 5.12-24.747 7.68-75.947 33.28-75.947 34.133-.853.853-1.707.853-2.56.853z" fill="#51565f"/></svg>