<svg xmlns="http://www.w3.org/2000/svg" viewBox="0 0 512 512"><path d="M412.674 374.257v91.146c0 21.534-17.459 38.993-38.993 38.993H75.028c-18.067 0-33.68-10.514-41.051-25.752-2.9-5.992-4.522-12.714-4.522-19.821 0-12.582 5.1-66.217 13.342-74.47 8.253-8.243 19.649-13.342 32.231-13.342h298.653c5.069 0 9.916-.963 14.356-2.727 14.427-5.719 24.637 22.448 24.637 5.973z" fill="#a35d45"/><path d="M388.037 374.896v86.634c0 9.449-7.665 17.114-17.124 17.114H33.977c-2.9-5.992-4.522-12.714-4.522-19.821v-87.557l358.582 3.63z" fill="#e2d0c5"/><path d="M412.674 46.597v327.66c0 16.475-10.21 30.558-24.637 36.276a38.808 38.808 0 01-14.356 2.727H75.028c-12.582 0-23.978 5.1-32.231 13.342-8.243 8.253-13.342 19.638-13.342 32.221V53.177c0-25.174 20.399-45.573 45.573-45.573h298.653c21.534 0 38.993 17.459 38.993 38.993z" fill="#ba7052"/><path d="M62.607 9.331c-19.133 5.408-33.152 22.98-33.152 43.846v405.646c0-12.582 5.1-23.968 13.342-32.221a45.584 45.584 0 0119.81-11.615V9.331z" fill="#a35d45"/><circle cx="375.656" cy="158.102" r="106.891" fill="#56bfa1"/><path fill="#fff2e9" d="M436.665 139.635h-42.546V97.089h-36.925v42.546h-42.546v36.926h42.546v42.546h36.925v-42.546h42.546z"/><path d="M29.455 145.255a7.605 7.605 0 007.604-7.604V53.177c0-20.936 17.033-37.969 37.969-37.969h298.653c12.22 0 23.42 7.177 28.533 18.284a7.604 7.604 0 1013.815-6.359C408.441 10.651 391.819 0 373.681 0H75.028C45.706 0 21.851 23.855 21.851 53.177v84.473c0 4.2 3.403 7.605 7.604 7.605zM412.673 276.87a7.605 7.605 0 00-7.604 7.604v89.782c0 12.967-7.785 24.432-19.84 29.209a31.134 31.134 0 01-11.549 2.19H75.028c-14.198 0-27.554 5.529-37.611 15.573l-.359.362V162.999a7.605 7.605 0 00-15.208 0v295.824c0 8.108 1.776 15.891 5.28 23.131C35.96 500.207 54.76 512 75.028 512h298.653c25.693 0 46.597-20.904 46.597-46.597v-38.466a7.605 7.605 0 00-15.208 0v38.466c0 17.308-14.082 31.389-31.389 31.389H75.028c-14.474 0-27.9-8.423-34.207-21.46-2.496-5.16-3.762-10.713-3.762-16.509 0-10.134 3.949-19.668 11.112-26.841 7.179-7.17 16.718-11.119 26.857-11.119h298.653c5.937 0 11.712-1.098 17.158-3.263 17.884-7.087 29.439-24.102 29.439-43.345v-89.783a7.605 7.605 0 00-7.605-7.602z"/><path d="M65.952 486.252h304.965c13.631 0 24.721-11.09 24.721-24.721v-22.422a7.605 7.605 0 00-15.208 0v22.422c0 5.246-4.267 9.513-9.513 9.513H65.952a7.605 7.605 0 000 15.208z"/><path d="M65.952 454.485h206.727a7.605 7.605 0 000-15.208H65.952a7.605 7.605 0 000 15.208zm295.441 0a7.605 7.605 0 000-15.208h-63.365a7.605 7.605 0 000 15.208h63.365zm14.264-410.879c-63.131 0-114.492 51.361-114.492 114.492 0 63.132 51.361 114.493 114.492 114.493 63.132 0 114.493-51.361 114.493-114.493-.001-63.131-51.362-114.492-114.493-114.492zm0 213.778c-54.745 0-99.284-44.539-99.284-99.285 0-54.745 44.539-99.284 99.284-99.284 54.746 0 99.285 44.539 99.285 99.284-.001 54.746-44.54 99.285-99.285 99.285z"/><path d="M436.666 132.032h-34.942V97.09a7.605 7.605 0 00-7.604-7.604h-36.927a7.605 7.605 0 00-7.604 7.604v34.942h-34.942a7.605 7.605 0 00-7.604 7.604v36.926a7.605 7.605 0 007.604 7.604h34.942v34.942a7.605 7.605 0 007.604 7.604h36.926a7.605 7.605 0 007.604-7.604v-34.942h34.942a7.605 7.605 0 007.604-7.604v-36.926a7.603 7.603 0 00-7.603-7.604zm-7.604 36.926H394.12a7.605 7.605 0 00-7.604 7.604v34.942h-21.719v-34.942a7.605 7.605 0 00-7.604-7.604h-34.942V147.24h34.942a7.605 7.605 0 007.604-7.604v-34.942h21.718v34.942a7.605 7.605 0 007.604 7.604h34.942v21.718h.001z"/></svg>