<svg height="464pt" viewBox="-40 0 464 464" width="464pt" xmlns="http://www.w3.org/2000/svg"><path d="M384 64v384c-.027 8.824-7.176 15.973-16 16h-32c8.824-.027 15.973-7.176 16-16V64zm0 0" fill="#5aaae7"/><path d="M352 64v384c-.027 8.824-7.176 15.973-16 16h-32c8.824-.027 15.973-7.176 16-16V64zm0 0" fill="#78b9eb"/><path d="M272 64H0v384c.027 8.824 7.176 15.973 16 16h288c8.824-.027 15.973-7.176 16-16V64zm0 0" fill="#96c8ef"/><path d="M352 0h32v64h-32zm0 0" fill="#1a6fb0"/><path d="M320 0h32v64h-32zm0 0" fill="#1e81ce"/><path d="M320 0v64H0V0zm0 0" fill="#3d9ae2"/><path d="M272 64v64l-16-32-16 32V64zm0 0" fill="#ff5023"/><path d="M256 96l8 16-8 16zm32-32v64l-16-32V64zm0 0" fill="#78b9eb"/><path d="M40 136h128v16H40zm0-32h48v16H40zm64 0h48v16h-48zm-64 80h240v16H40zm64 32h176v16H104zm-64 32h240v16H40zm0 32h64v16H40zm80 0h160v16H120zm-80 32h240v16H40zm0-96h48v16H40zm0 128h96v16H40zm112 0h16v16h-16zm32 0h96v16h-96zM40 376h160v16H40zm176 0h64v16h-64zm0 0" fill="#5aaae7"/></svg>